<svg width="58" height="67" viewBox="0 0 58 67" fill="none" xmlns="http://www.w3.org/2000/svg">
<g id="benefit">
<path id="Vector" d="M28.9692 66.5C29.8321 66.5 30.5717 65.7721 30.5717 64.9228V63.8915C45.3029 63.1029 57.1987 51.5165 58 36.8364C58 36.4117 57.8767 35.9871 57.5685 35.6838C57.2604 35.3805 56.8289 35.1985 56.3975 35.1985H51.5898C50.7269 35.1985 49.9872 35.9265 49.9872 36.7757C49.9872 37.625 50.7269 38.3529 51.5898 38.3529H54.6716C53.254 50.5459 43.084 60.0092 30.5717 60.7978V22.5202H40.865C41.728 22.5202 42.4676 21.7923 42.4676 20.943C42.4676 20.0938 41.728 19.3658 40.865 19.3658H30.5717V11.2978C32.8523 10.6305 34.5781 8.50734 34.5781 6.02021C34.5781 2.98712 32.051 0.5 28.9692 0.5C25.8874 0.5 23.3602 2.98712 23.3602 6.02021C23.3602 8.50734 25.0244 10.6305 27.3666 11.2978V19.3658H17.0733C16.2104 19.3658 15.4708 20.0938 15.4708 20.943C15.4708 21.7923 16.2104 22.5202 17.0733 22.5202H27.3666V60.7978C14.8544 60.0698 4.74599 50.6066 3.32835 38.3529H6.41018C7.27309 38.3529 8.01275 37.625 8.01275 36.7757C8.01275 35.9265 7.27309 35.1985 6.41018 35.1985H1.60254C1.17108 35.1985 0.739646 35.3805 0.431464 35.6838C0.123281 35.9871 0 36.4117 0 36.8364C0.739639 51.5165 12.6355 63.1029 27.4283 63.8915V64.9228C27.3666 65.7721 28.0446 66.5 28.9692 66.5ZM26.5653 5.89888C26.5653 4.62498 27.6132 3.53309 28.9692 3.53309C30.2636 3.53309 31.373 4.56432 31.373 5.89888C31.373 7.17277 30.3252 8.2647 28.9692 8.2647C27.6132 8.2647 26.5653 7.23343 26.5653 5.89888Z" fill="#333333"/>
</g>
</svg>
