<svg width="66" class='m_svg' height="59" viewBox="0 0 66 59" fill="none" xmlns="http://www.w3.org/2000/svg">
    <style>
        .m_svg path{
        fill : red;
        }
    </style>
<g id="cart">
<path id="Vector" d="M51.655 52.6017C51.655 49.0949 48.8088 46.2033 45.3571 46.2033C42.4503 46.2033 39.9675 48.2336 39.3014 51.0021H36.4552C35.7285 48.2336 33.3063 46.2033 30.3995 46.2033C27.4928 46.2033 25.01 48.2336 24.3438 51.0021H24.1622V42.5735H51.7155C52.3211 42.5735 52.8055 42.2659 53.1083 41.7122L65.8253 17.7184C66.0675 17.2263 66.0675 16.6111 65.7647 16.1189C65.4619 15.6267 64.9775 15.3191 64.4325 15.3191H15.5631L10.7186 1.04589C10.4763 0.430664 9.93132 0 9.20464 0H1.5745C0.726704 0 0 0.738254 0 1.59957C0 2.46088 0.726704 3.19917 1.5745 3.19917H8.11463L21.0132 41.22V52.6017C21.0132 53.463 21.7399 54.2012 22.5877 54.2012H24.3438C25.0705 56.9697 27.4928 59 30.3995 59C33.3063 59 35.7891 56.9697 36.4552 54.2012H39.3014C40.0281 56.9697 42.4503 59 45.3571 59C48.8088 59 51.655 56.17 51.655 52.6017ZM61.7074 18.5798L50.6861 39.3743H23.6172L16.532 18.5798H61.7074ZM30.3995 55.8008C28.6434 55.8008 27.2506 54.3858 27.2506 52.6017C27.2506 50.8175 28.6434 49.4025 30.3995 49.4025C32.1557 49.4025 33.5485 50.8175 33.5485 52.6017C33.5485 54.3858 32.0951 55.8008 30.3995 55.8008ZM45.3571 55.8008C43.6009 55.8008 42.2081 54.3858 42.2081 52.6017C42.2081 50.8175 43.6009 49.4025 45.3571 49.4025C47.1132 49.4025 48.506 50.8175 48.506 52.6017C48.506 54.3858 47.1132 55.8008 45.3571 55.8008Z" fill="#333333"/>
</g>
</svg>


