<svg width="58" height="67" viewBox="0 0 58 67" fill="none" xmlns="http://www.w3.org/2000/svg">
<g id="cs">
<path id="Vector" d="M13.1244 55.8939C13.9712 55.8939 14.6969 55.1667 14.6969 54.3182V31.0455C14.6969 30.197 13.9712 29.4697 13.1244 29.4697C10.7658 29.4697 8.40707 30.1364 6.35078 31.3485C5.08071 32.0758 3.99209 33.0455 3.0849 34.0758C3.26634 24.197 6.41125 3.65152 28.97 3.65152C44.876 3.65152 54.4922 14.9849 54.8551 34.0152C53.9479 32.9849 52.8593 32.0152 51.5892 31.2879C49.5329 30.0758 47.2347 29.4091 44.8155 29.4091C43.9688 29.4091 43.2431 30.1364 43.2431 30.9849V54.197C43.2431 55.0455 43.9688 55.7727 44.8155 55.7727C46.0251 55.7727 47.2347 55.5909 48.3838 55.2879V59.0455L36.4694 63.4697C35.6832 63.7727 35.2598 64.6818 35.5622 65.4697C35.8041 66.0758 36.4089 66.5 37.0137 66.5C37.1952 66.5 37.3766 66.4394 37.558 66.3788L50.5006 61.5909C51.1054 61.3485 51.5287 60.803 51.5287 60.1364V53.9546C55.3994 51.6515 58 47.4091 58 42.6212V35.0455C58 25.3485 55.6413 16.9848 51.2263 10.9849C46.1461 4.13637 38.4652 0.5 29.0305 0.5C19.2933 0.5 11.7939 3.95455 6.71365 10.803C2.29867 16.7424 0.000458777 25.1061 0.000458777 35.0455V42.6212C-0.0600204 49.9545 5.86694 55.8939 13.1244 55.8939ZM46.388 52.6212V32.803C47.6581 32.9849 48.8676 33.4697 49.9563 34.1364C52.9802 35.9545 54.8551 39.1667 54.8551 42.7424C54.8551 47.7121 51.1659 51.8333 46.388 52.6212ZM7.92323 34.0758C9.01186 33.4091 10.2214 32.9849 11.4915 32.7424V52.5606C6.71365 51.8333 3.02442 47.6515 3.02442 42.6212C3.0849 39.1061 4.89927 35.8939 7.92323 34.0758Z" fill="#333333"/>
</g>
</svg>
