<svg width="45" height="59" viewBox="0 0 45 59" fill="none" xmlns="http://www.w3.org/2000/svg">
<g id="member">
<path id="Vector" d="M0 36.975V57.4004C0 58.2617 0.723846 59 1.56835 59H43.4316C44.2762 59 45 58.2617 45 57.4004V36.975C45 33.0991 43.1301 29.5923 39.933 27.5621C37.7011 26.0855 35.2882 24.9781 32.7547 24.1168C36.1327 20.3639 37.3391 15.196 35.7708 10.0897C33.9008 3.99895 28.7131 0.0615224 22.5 0C22.5 0 22.5 0 22.4397 0C16.2266 0.0615224 11.0389 4.06048 9.16891 10.0897C7.60055 15.1345 8.80698 20.3639 12.185 24.1168C9.71181 24.9781 7.29892 26.147 5.0067 27.5621C1.93029 29.5923 0 33.0991 0 36.975ZM6.75604 30.269C9.53084 28.4849 12.6073 27.1929 15.8043 26.3931C16.4075 26.2701 16.8901 25.7779 17.0107 25.1627C17.1314 24.5474 16.8901 23.9322 16.4075 23.5631C11.5818 20.1178 11.0992 14.8269 12.3056 11.074C13.4518 7.32117 16.7694 3.2607 22.6207 3.19917C27.4464 3.2607 31.4879 6.33681 32.9357 11.074C34.0818 14.8269 33.5992 20.1178 28.7735 23.5631C28.2909 23.9322 28.0496 24.5474 28.1703 25.1627C28.2909 25.7779 28.7735 26.2701 29.3767 26.3931C32.5737 27.1314 35.5898 28.4234 38.425 30.269C40.6569 31.7456 42.0443 34.268 42.0443 36.975V55.8008H3.3177V36.975C3.13673 34.2065 4.52414 31.6841 6.75604 30.269Z" fill="#333333"/>
</g>
</svg>
